<svg width="40" height="40" viewBox="0 0 40 40" fill="none" xmlns="http://www.w3.org/2000/svg">
<path d="M5.05957 20.54C8.27957 15.71 13.7596 12.52 19.9996 12.52C26.2396 12.52 31.7196 15.71 34.9396 20.54" stroke="#0E2042" stroke-width="1.5" stroke-linecap="round" stroke-linejoin="round"/>
<path d="M20 28.7802C24.0261 28.7802 27.29 25.5164 27.29 21.4902C27.29 17.464 24.0261 14.2002 20 14.2002C15.9738 14.2002 12.71 17.464 12.71 21.4902C12.71 25.5164 15.9738 28.7802 20 28.7802Z" stroke="#0E2042" stroke-width="1.5" stroke-linecap="round" stroke-linejoin="round"/>
<path d="M31.3 26.4399C28.22 28.9499 24.28 30.4599 20 30.4599C15.72 30.4599 11.79 28.9599 8.70996 26.4499" stroke="#0E2042" stroke-width="1.5" stroke-linecap="round" stroke-linejoin="round"/>
<path d="M19.96 11.94V9.54004" stroke="#0E2042" stroke-width="1.5" stroke-linecap="round" stroke-linejoin="round"/>
<path d="M30.4805 15.6699L32.4905 13.6499" stroke="#0E2042" stroke-width="1.5" stroke-linecap="round" stroke-linejoin="round"/>
<path d="M9.45953 15.67L7.51953 13.73" stroke="#0E2042" stroke-width="1.5" stroke-linecap="round" stroke-linejoin="round"/>
</svg>
